<svg xmlns="http://www.w3.org/2000/svg" viewBox="0 0 327.2 120.2" xmlns:v="https://vecta.io/nano"><g fill="#483729"><path d="M31.8 7.3l-1 .5c-.3.1-.5.2-.1.5.1.1.2.2-.1.3-.2 0-.3.1-.5.2-.4.2-.7.7-1.1.1h-.2c-.8.8-2.1 1-2.7 2.1 0 .1-.1.1-.2.2-.3.1-.6.3-.9.5a16.1 16.1 0 0 0-3 2.1c-.5.4-1 .9-1.5 1.4l-2.2 2c-1 .8-1.7 1.9-2.6 2.8-1.8 1.8-3.3 3.8-4.8 5.9-.1.2.1.5 0 .7s-.6.2-.6.3c-.2.6-.7 1-1 1.4C8.1 30 7 32 6 34l-3 7.3c-.6 1.7-1.1 3.5-1.5 5.3L.5 52l-.6 5.3c0 .2-.1.4-.1.6l.1 5.2.4 5c.2 1.8.6 3.5 1 5.2l2.2 7.3c.3.8.7 1.4.9 2.2.5 1.4 1.2 2.8 1.8 4.2a12.81 12.81 0 0 0 1.1 2c.4.7.7 1.4 1.2 2s.8 1.2 1.2 1.9c.9 1.6 2 2.9 3.1 4.3.3.4.7.7 1 1.1l.9 1.3a5.73 5.73 0 0 0 1.1 1.1c.4.3.5 1.1 1.2.9.2 0 .2.3.2.6 0 .1 0 .3.3.2.7-.1.7-.1.9.7h.1a6.07 6.07 0 0 1 .5.3c-.2.4-.4 0-.6 0h.1c.7 1 1.9 1.4 2.8 2.2 0 0 .2.1.2 0 .4-.1.4.1.4.4-.1.4.1.6.4.8.8.5 1.3 1.3 2.3 1.5.1 0 .2.1.2.1 1.1 1.3 1.7 1.6 3.1 2.2.5.2 1.4.1 1.5 1 .8.5 1.5 1.1 2.5 1.2.4 0 .8.1 1 .5.1.3.4.2.6.1s.4-.2.6-.2l1.4.3c.1 0 .3.2.2.3s-.2.3-.3.3c-.3 0-.6-.1-.8-.3-.3-.2-.5-.2-.7-.1h-.2c.1 0 .1.1.2.1.6.3 1.2.7 1.9.7.3 0 .7 0 .8.5 0 .1.3.1.5.2 0-.3.1-.6.5-.5 1.1.2 2.2.2 3.2.4.1 0 .3.2.3.3 0 .3-.2.4-.4.3-.8-.2-1.6-.1-2.4-.3-.4-.1-.7-.1-1.1-.1l2.5.7c.2.1.4.3.6.4s.4.4.6-.1c.1-.2.8-.2 1 0 .1.1.1.3.1.3-.4.5.1.4.3.4.3.1.6.3.9.3.8 0 1.5-.1 2.3.1.1 0 .1-.1.2-.1.3 0 .7 0 1 .1.1 0 .1.3.2.5-.1 0-.2.1-.4.1H46c-.1 0-.1.1-.2.1.1 0 .1 0 .2.1.6.1 1.3.3 1.9.2.9-.2 1.9.2 2.8-.3h.2c.2.1.4.2.5.3.1.2-.1.4-.3.4-.4.1-.8.1-1.2.2h-.3c.1 0 .2 0 .3.1.4.1.8.1 1.3.1.4 0 .9 0 1.3.1.4 0 .7-.4 1.1-.4h.5l3.1-.5 3.4-1c.3-.1.7-.2.8.1.1.4-.3.4-.6.6h-.1c-1.2.3-2.4.8-3.6.9-.8.1-1.7.8-2.6.3 0 0-.2.1-.2.2-.2.3.1.2.2.2.8.1 1.5 0 2.3-.2.7-.2 1.4-.4 2.2-.5.2 0 .4.1.6.2-.1.2-.3.4-.4.5s-.2 0-.3.1c-.2.1-.5.1-.7.2-.1 0-.2.1-.3.1h.3c.9 0 1.7-.2 2.5-.4.6-.2 1.2-.3 1.8-.5l5.3-2 1.4-.6c.1 0 .4.1.5.2.2.2-.1.4-.3.4l-1.6.7c-.5.2-1 .3-1.5.5l-3.6 1.4c-.1.1-.3.1-.4.2.1 0 .3.1.4.1h.4l2.6-.9 1.2-.3c.2-.1.3-.4.5-.4.9 0 1.4-.8 2.2-1 .2-.1.4-.2.6-.2.1 0 .3.1.5.2-.1.2-.1.4-.2.5l-1.9.9a2.2 2.2 0 0 1-1.4.2c-.1.1-.2.3-.3.4-.2.2-.4.3-.6.4.3 0 .5-.1.8-.1.3-.1.6-.1.9-.2.9-.3 1.8-.7 2.6-1.2a.76.76 0 0 1 .4-.2c.2 0 .5 0 .6.1.1.2-.1.4-.3.5s-.3.1-.5.2c-.1 0-.2.1-.2.2h.3c.4-.1.8-.3 1.3-.5l1.6-.6c.9-.5 1.8-1.1 2.7-1.7.2-.1.5-.2.6.1.1.2-.1.5-.3.6l-1.8 1.1c-.1 0-.1.1-.2.2h.3l1.9-.9c.4-.2.7-.4 1 0 .1.1.3 0 .5 0-.5-.3-.6-.7-.2-.8.2-.1.5.1.7.1l-.3.6c.4-.1 2.9-.6 3.2-.9l1.9-1.3c0-.1-.1-.2-.1-.3l-1.9 1.3c-.1.1-2.4.5-2.5.6 0-.2 2-.9 2.1-1a6.42 6.42 0 0 1 1.3-1c.2-.2.5-.3.7-.5v-.1c0-.1-.1-.2-.1-.2l-1.7 1.2c-.5.3-1.3.5-1.8.8-.2.1-.4.2-.6 0-.2-.3.1-.4.2-.6.1-.1.2-.1.3-.2 1-.7 2.3-1.2 3.3-1.9 0-.1-.1-.2-.1-.3-.5.3-3 1-3.5 1.4-.6.6-1.5 1-2.2 1.5s-1.6.7-2.3 1.3c-.7.5-1.4.8-2.1 1.2-.1 0-.2.1-.2.1-.3.1-.5 0-.6-.3 0-.1.2-.3.3-.4.2-.1.5-.2.7-.3l1.9-1.2 2.7-1.5c1-.7 4-1.8 5.1-2.4-.1-.1-.1-.3-.2-.4-.3.2-.5.4-.8.6.4-.3-2 1.4-2.7.4-.2-.2.4-.4.6-.5.4-.1 2.2-1 2.5-1.2-.1-.1-.1-.3-.2-.4-.6.4-3.1 1.4-3.7 1.8-.3.2-.6.3-.9.1-.1 0-.1-.2-.1-.2.2-.2.5-.3.7-.5h0c-.5.2-1.1.3-1.6.6l-3.3 1.9-.6.3c-.1 0-.3-.1-.5-.2.1-.1.1-.3.2-.4.4-.3.8-.5 1.2-.8.1-.1.2-.1.2-.2-.1 0-.2 0-.3.1l-1.4.6c-.3.1-.6.5-.9 0-.2-.3-.1 0-.1.1s-.1.4-.2.4l-2.7 1.2c-.1.1-.3-.1-.5-.2.1-.1.2-.3.3-.4 0-.1.2-.1.2-.1.5-.2 1-.4 1.5-.7.1 0 .1-.1.2-.2-.1 0-.2-.1-.3-.1-.6.2-1.3.5-1.9.8-.3.1-.7.4-1-.2 0-.1-.2-.1-.3-.1-.5.1-1.1.1-1.6.2-.4.1-.7.3-1.1.4-.3.1-.6.2-.7-.2 0-.1-.2-.3-.3-.2-.5 0-1.1 0-1.6.2-2 .7-4.1 1.1-6.1 1.5-1.2.3-2.4.3-3.5.6-.2.1-.5 0-.8-.1-.1 0-.2-.2-.2-.3s.2-.2.3-.3c.6-.1 1.2-.1 1.9-.2.8-.1 1.5-.4 2.3-.3 1.4-.5 2.8-.8 4.2-1h.2c-.1 0-.1-.1-.2-.1-.7 0-1.4 0-2 .2s-1.3-.1-1.9.4c-.4.3-1 .1-1-.2 0-.5.4-.5.8-.5.2 0 .4-.1.6-.1-.2 0-.4-.1-.6-.1h-.4l-3.9.5c-.6.1-1.2 0-1.8.1h-.3c-.7.4-1.2.2-1.8-.3-.4.5-.6.6-1.3.4-.3-.1-.6-.3-.9 0h-.2c-.4-.1-.7-.2-1.1-.2s-.8.3-1.1.2c-.8-.2-1.7 0-2.4-.3-.2-.1-.5-.2-.7-.3v-.2c.3 0 .6-.1.9 0 .1 0 .2.1.3.2.2.2.3.1.5.1.3-.1.7-.2.9-.1.6.2 1.1.1 1.6.1h3.2l2.4-.2 2.3-.2c.1 0 .2-.1.3-.2h-1.9l-3.9.1c-.6 0-1.3-.1-1.9 0-1.2.2-2.4-.2-3.6-.2-.2 0-.5-.1-.4-.4 0-.1.3-.3.5-.2.4.1.7.5 1 .4.4-.1.7-.2 1.1-.2h.2a.91.91 0 0 0 1 0c.1-.1.3-.1.4 0l2.6.1h.4c.5 0 .9-.1 1.4-.1h.2c-.1 0-.1 0-.2-.1-.5-.1-1-.3-1.6-.3l-3.3.1c-.3 0-.6 0-.9-.1-.1 0-.3-.2-.2-.3 0-.1.2-.3.3-.3.2 0 .5-.1.7.1.5.4.8-.1 1.2-.1h0c-.7-.1-1.3-.7-2.1-.5-.4.1-.9.1-1-.5 0-.1-.3-.2-.4-.3-.8-.3-1.5-.6-2.4-.7-.4 0-.8 0-.8-.6 0-.1-.3-.2-.4-.3-.8-.5-1.7-.5-2.5-.8-.3-.1-.9 0-.6-.7 0 0-.2-.3-.3-.3-.6-.2-1-.8-1.7-.8-.2-.5-.6-.4-1-.3-.3 0-.5-.2-.6-.6a.76.76 0 0 0-.2-.4c-.7.6-.7.6-1.4.2-.3-.1-.6-.1-.8-.3-.3-.2-.6-.5-1.1-.5-.1 0-.3-.1-.3-.2s.1-.3.2-.3h.6c.2.1.4.3.6.3.6 0 .7.4.9.8.4-.1.8-.2 1.2-.2-.5-.3-1-.5-1.5-.9-.7-.5-1.3-1.2-2.1-1.7-.6-.4-1-1.2-1.9-1.2 0 0-.1-.2-.1-.3-.1-.4-.2-.5-.6-.3-.1.1-.3.1-.4 0-.3-.2-.5-.5-.7-.6s-.5-.2-.3-.5.4 0 .6 0h.3l-.1-.1-1.5-1.4c-.1-.1-.3-.3-.4-.2-.8.2-1-.6-1.5-.8-.2-.1-.3-.4 0-.5s.2-.2.1-.3l-1.1-1.2-1.5-1.8c-.1-.2-.3-.3-.5-.2s-.2 0-.2-.2.1-.4 0-.5c-.2-.4-.5-.8-.8-1.2l-2-3-2.7-4.9c-.4-.7-.7-1.4-1-2.2-.8-.7-1.4-1.3-1.4-2.1l-.3.3-.2-.2c.1-.1.2-.1.3-.2L8 76.7l-1.4-5.5c-.4-1.8-.6-3.6-.8-5.4l-.3-5.9c-.1-1.5.1-2.9.3-4.4.2-1.1.3-2.2.4-3.3 0-1.2.4-2.2.3-3.4 0-.1.1-.2.1-.2.2-.8.5-1.5.7-2.3.4-1.7.9-3.4 1.6-5 .8-2.1 1.7-4.3 2.8-6.3a.45.45 0 0 0 0-.5c-.2-.2.1-.5.2-.4.3.1.4 0 .4-.3v-.3l1.8-2.7c.1-.2.4-.4.1-.7l.1-.2c.4.2.4-.2.6-.4l2.8-3.6c1.7-2.2 3.6-4.2 5.7-6 .6-.5 1.2-1 1.7-1.6.4-.4.7-.8 1.3-1 .4-.2.9-.4 1-1 .1-.5.3-.6.8-.6h.5l1.8-1.2c.9-.7 1.9-1.3 3-1.7h-.4c-.1 0-.2-.1-.2-.2s1.1-.9 1.2-1.1m-5.7 2.4s-.1-.2-.2-.3c0-.3.2-.4.5-.3.1 0 .2.2.3.2 0 .4-.3.4-.6.4zm1.5.6c-.1.1-.3.2-.4.1-.1 0-.2-.3-.2-.3.1-.1.2-.2.4-.2.1 0 .2.1.4.2l-.2.2zm.7-1.2c-.2.1-.4 0-.6 0v-.2l.9-.6c.1-.1.3 0 .5 0 .1 0 .1.2.3.4-.3.1-.7.3-1.1.4zm2.2-2.4c.1 0 .2.2.4.3-.1.1-.1.2-.2.3-.4.2-.6.4-1 .5-.1 0-.4-.1-.5-.2v-.3c.5-.2.8-.4 1.3-.6zm-.9-2.3l-.5.2c0-.3-.1-.4-.1-.5 0-.2.1-.3.3-.4l.3.7zm-.2.4c.2.1.3.3.5.5-.3.1-.4.1-.5.1-.2-.1-.3-.3-.4-.4a.76.76 0 0 1 .4-.2zm.5 1c.1 0 .2.1.2.1-.1.1-.1.2-.2.2-.1.1-.3.3-.5.4s-.4.2-.7.3c0-.2-.1-.4-.1-.4.5-.2.9-.4 1.3-.6zm-1.5 1.3c.1.3.1.4.1.5-.1.3-.3.2-.5.2-.1 0-.2-.1-.2-.2.2-.1.4-.3.6-.5zm-.3-1.7s.1.2.2.2c-.1.1-.2.1-.3.2-.1-.1-.1-.2-.2-.3 0 0 .1-.1.3-.1zm-.8 1c.1 0 .3.2.6.3-.4.2-.6.3-.9.3 0 0-.2-.1-.2-.2 0-.3.3-.3.5-.4zm0 1.7v.1c-.1 0-.3.2-.4.1-.2-.1-.4-.3-.5-.4l.1-.2c.3.2.6.3.8.4zm-.9-2.5l.3.3c-.2.1-.3.2-.4.2s-.2-.1-.2-.2l.3-.3zM16.9 25.6s-.3-.2-.3-.3a1.38 1.38 0 0 1 .3-.4c.1 0 .2-.1.3-.1 0 .1.1.3.1.4a.78.78 0 0 1-.4.4zm1.1-.9l-.2-.2c.1-.1.2-.2.4-.3 0 0 .1.1.3.2-.2.2-.4.3-.5.3zm.5-3c0-.1.2-.2.3-.4l.2.4c-.1.1-.3.2-.4.3 0-.1-.1-.3-.1-.3zm2 .4c-.1-.1-.2-.3-.2-.3.1-.2.3-.3.5-.4.1.2.2.3.2.4-.1 0-.3.1-.5.3zm4.5-4.7c-.1 0-.2-.1-.2-.2.1-.1.3-.2.4-.3l.3.3c-.2 0-.3.2-.5.2zm1.6-1.7s-.2-.1-.2-.2c0-.2 0-.5.4-.5.1 0 .3.1.6.3l-.8.4zm1-2.7c-.1 0-.2-.2-.3-.3.2-.2.3-.3.6-.5.1.2.2.3.2.3a.47.47 0 0 1-.5.5zm-.2-2.8c.3.1.5.2.7.3-.2.1-.3.2-.5.2-.1 0-.2-.2-.3-.3-.1 0 0-.1.1-.2zm-.4 1.2c.1 0 .2.1.3.2 0 .4-.2.6-.5.5-.1 0-.3-.2-.3-.3 0-.3.3-.3.5-.4zm-.8 2.5l.2.4c-.1.2-.3.3-.5.4-.1-.1-.3-.3-.2-.3.1-.2.3-.3.5-.5zm-.5-1.8c.1.1.2.2.3.2-.1.1-.2.2-.3.2s-.2-.2-.3-.3c.1 0 .2 0 .3-.1zm-.5 1.1l.2.2c-.1.4-.3.6-.6.5-.1 0-.2-.3-.2-.3.2-.1.4-.3.6-.4zm-.7 3c-.1.2-.3.3-.5.5-.1-.2-.2-.3-.2-.4 0-.3.2-.4.5-.3.1 0 .2.2.2.2zm-.2-3.6c.1 0 .1.2.2.4-.2 0-.4.1-.4.1-.1-.1-.1-.3-.2-.4.1-.1.3-.2.4-.1zm-.4 4.9l.3.3c-.1.1-.2.1-.3.2-.1-.2-.2-.3-.2-.4 0 0 .1-.1.2-.1zm-.2 1.5c0 .3-.2.5-.5.4-.1-.1-.2-.4-.2-.4.1-.2.3-.3.6-.5 0 .2.1.3.1.5zm-.3-3.8l.2.2-.4.4-.3-.3c.1-.1.3-.2.5-.3zm-.8-.8l.2.2c-.1.1-.2.3-.4.4-.2-.2-.3-.3-.3-.4.1 0 .3-.1.5-.2zm-.4 3.6c.2-.2.5 0 .5.3s-1.3 1-1.5.8c-.1-.1 0-.4 0-.4.5-.1.7-.5 1-.7zm-.8-.7c0-.1.1-.1.2-.3a1.44 1.44 0 0 1 .2.3c-.1.1-.2.1-.3.1 0 .1-.1-.1-.1-.1zm0-2.4c.1 0 .3.1.6.2-.3.2-.5.4-.7.5-.1-.1-.3-.3-.3-.4s.2-.2.4-.3zm-.9 2.9c.1 0 .3.2.5.4-.3.1-.5.3-.7.3-.1 0-.2-.1-.2-.2 0-.3.2-.5.4-.5zm-.3 3c-.2.1-.3.2-.5.3l-.2-.2a1.38 1.38 0 0 1 .4-.3s.1.1.3.2zm-.3-3.8c.1 0 .2.1.3.2-.2.1-.3.3-.5.3 0 0-.1-.2-.2-.3.1-.1.2-.2.4-.2zm-.3 5.2c.1 0 .2.1.3.2 0 .1.1.1.1.2-.1 0-.3.1-.4.1s-.2-.2-.3-.3c.1-.1.2-.2.3-.2zm-.9 1.7v-.2c.1-.1.2-.1.3-.1l.2.2c-.2 0-.3.1-.5.1zm.5-3.8l-.4.4-.2-.4a.76.76 0 0 1 .4-.2c.1 0 .3.1.2.2zm-.5-2.5c.1.2.2.3.2.4s-.2.2-.3.3c-.1-.1-.2-.2-.2-.3s.1-.2.3-.4zm-.8 3s.2.2.4.3c-.2.2-.4.3-.6.4 0 0-.2-.2-.2-.3a.78.78 0 0 1 .4-.4zm-.6-1c.1 0 .1.1.3.3-.2.1-.4.3-.6.4l-.2-.2c.1-.4.2-.5.5-.5zm-.6 5c-.2.1-.4.3-.6.3-.1 0-.2-.3-.2-.4.1-.1.3-.3.4-.3s.2.2.4.4zm-.7-4.1a1.44 1.44 0 0 1 .2.3l-.3.3-.2-.2c0-.2.2-.3.3-.4zm-3.3 11.4c-.1 0-.2-.2-.2-.2l.3-.3.4.4c-.3.1-.4.1-.5.1zm2.7-6.7a1.38 1.38 0 0 1-.3.4l-.4-.4c.2-.1.3-.2.5-.3 0 .1.2.3.2.3zm-.9-1a1.38 1.38 0 0 1 .3.4c-.2.1-.4.2-.5.3l-.2-.2c.1-.2.3-.4.4-.5zm-1.8 6.1c-.1 0-.1-.2-.2-.2l.3-.3c.1 0 .2.1.5.3-.3.1-.4.2-.6.2zm0-6l.2.2a1.38 1.38 0 0 0-.4.3c0-.1-.1-.2-.1-.2.1-.2.2-.2.3-.3zm-.1 1.8c.1 0 .1.1.2.2-.2.1-.3.1-.3.1-.1 0-.1-.2-.2-.3h.3zm-.7-.9c0 .1.1.2.1.4-.1 0-.2.1-.3.1s-.1-.1-.2-.2l.4-.3zm-1.1 8.1l.3.3c-.1 0-.1.1-.2.1-.1-.1-.2-.2-.3-.2l.2-.2zm0 1.9c.1.1.2.1.2.2s-.1.2-.2.4c-.1-.1-.2-.2-.1-.3-.1-.2 0-.2.1-.3zM7.6 76.6l.3.3c-.1.1-.2.1-.3.1-.1-.1-.1-.2-.2-.3.1 0 .2-.1.2-.1zm-.7.7c.1.1.2.2.2.3a.76.76 0 0 1-.2.4c-.1 0-.1-.1-.2-.1 0-.1-.1-.2-.1-.3 0-.2.2-.2.3-.3zm.3 5.9l-.3.3c-.1-.3-.2-.4-.2-.6 0-.1.2-.1.3-.2.1.2.2.4.2.5zm-1.4-4.7c.1 0 .2-.1.3-.1s.1.1.3.3c-.2 0-.3.1-.4.1-.1-.1-.2-.2-.2-.3zm.6.9s.1-.1.2-.3c.1.2.2.3.2.4s-.2.1-.3.2c0-.1-.1-.2-.1-.3zm.3 7.6c-.1-.1-.2-.2-.2-.3.1-.1.2-.2.4-.2.1 0 .1.2.2.4-.2.1-.3.1-.4.1zm.2-1.8c-.1-.1-.2-.3-.3-.5.1 0 .2-.1.3-.1a1.38 1.38 0 0 1 .3.4c-.1.2-.2.2-.3.2zm.6.9c-.1-.2-.2-.3-.2-.4l.2-.2c.1.1.2.2.2.3.1.1-.1.2-.2.3zm.3-2.1c0 .1-.1.2-.3.4-.1-.3-.2-.5-.2-.7l.2-.2c.3.1.4.3.3.5zm-.1-1.7c-.1-.1-.2-.2-.2-.3s.1-.2.2-.3c.1.1.3.2.3.3s-.2.2-.3.3zm.8-.6c-.1-.2-.2-.3-.2-.4s.1-.2.2-.4c.1.1.3.2.3.3 0 .2-.1.3-.3.5zm30.3 30.9c-.4.1-.8-.3-1.1-.4s-.7.4-1.1.1-.9 0-1.3-.1c-.1 0-.2-.1-.3-.2l.2-.2c.2-.4.6-.3.9-.2.7.1 1.4.1 2.2.2.2 0 .4 0 .6.1.1 0 .3.2.2.3 0 .2-.2.4-.3.4zm1.6-.5h.3a1.38 1.38 0 0 1 .3.4c-.1.1-.2.2-.4.3h-.4c-.1-.1-.3-.2-.3-.4-.1-.3.2-.3.5-.3zm-5-2.4c0-.1.3-.2.4-.3.4.1.7.1.6.5-.1.3-.4.2-.6.2-.1 0-.5 0-.4-.4zm1.2.9c1.1.3 2.2.2 3.2.4.1 0 .2.2.3.4-.1.1-.3.2-.4.3h-.2c-.5.1-.7-.7-1.4-.3-.3.2-.9 0-1.4-.1-.5 0-1-.1-1.5-.1-.4 0-.8-.1-1-.5-.1-.3-.4-.2-.6-.1l-.4.2c-.6-.1-1-.3-1.4-.4-.1 0-.3-.1-.3-.2s.1-.4.2-.4h.9l1.3.3c.3.1.5.1.8.2.7.2 1.2.7 1.9.3zm-1.8 1.3c-.1.1-.1.2-.1.2-.4-.1-.7-.2-1.1-.4v-.3c.3 0 .6-.1.8 0 .2 0 .3.3.4.5zm-1.6-3.1c.4.2.8.6 1.3.3 0 0 .2.1.2.2a.76.76 0 0 1-.2.4c-.1.1-.3 0-.4 0-.5-.1-1-.2-1.4-.4-.1 0-.2-.2-.2-.3s.2-.2.3-.3c.2 0 .3 0 .4.1zm-1.3-1c.1-.1.3-.2.6-.3.2.2.3.4.5.5-.2.1-.3.2-.5.2-.5.1-.8-.2-.6-.4zm-.8-.6s.1.1.3.2c-.3.2-.4.3-.6.4 0 0-.1-.2-.2-.3.2-.1.4-.2.5-.3zm-.7.9h.2c.4.1.8.2 1.1.4a.76.76 0 0 1 .2.4c0 .1-.3.2-.4.2l-1.2-.6c-.1 0-.1-.2-.1-.2 0-.1.1-.2.2-.2zm.7 1.7c-.2.1-.4.3-.5.2-.5-.2-1-.6-1.7-.6 0 0-.1-.2-.1-.3.2-.1.4-.3.5-.3.6.2 1 .4 1.5.6.1.1.2.3.3.4zm-1.6-3.1c.4 0 .6.3.7.8-.1 0-.2.1-.3.1-.3-.1-.5-.2-.7-.3-.1-.1-.1-.4-.2-.6h.5zm-2 .4a11.64 11.64 0 0 1 1.5.6c.1.1.1.3.2.5-.2 0-.4.1-.5.1-.5-.2-.8-.7-1.4-.7 0 0-.1-.2-.1-.3.1 0 .3-.1.3-.2zm-.5-1.3c.3 0 .5.4.5.7-.1 0-.3.1-.4.1-.3 0-.5-.3-.6-.6-.1-.1.3-.2.5-.2zm-.8-.2c-.2.1-.3.2-.5.2 0 0-.2-.2-.2-.3s.2-.2.4-.4c.1.3.2.4.3.5zm-1.2-3l1.1.6c.1.1.2.3.3.5-.2.1-.4.2-.5.2-.5-.2-.9-.4-1.3-.7-.1-.1-.1-.3-.1-.5.2-.1.4-.2.5-.1zm.4 1.8c-.3 0-.4.1-.5.1s-.1-.2-.1-.3c.1 0 .2-.1.3-.1s.2.1.3.3zm-1.4-1.1c.2.1.4.2.6.4-.2.2-.4.4-.5.3-.2-.1-.3-.3-.4-.5 0 0 .3-.2.3-.2zm-1.5-2c.1 0 .2.2.3.4l-.3.3c-.2-.1-.3-.2-.5-.4.2-.1.3-.3.5-.3zm-1.3-2.1c.1 0 .2.2.3.3-.1.1-.3.2-.5.4-.1-.2-.2-.3-.2-.3.1-.2.2-.4.4-.4zm.5 1.8a.76.76 0 0 1-.4.2c-.2 0-.4-.1-.3-.4 0-.1.2-.2.3-.3.2.2.3.3.4.5zm-1.4-1c.1 0 .3.1.5.2-.2.1-.3.1-.3.1-.1 0-.2-.1-.3-.2l.1-.1zm-1.8-3.9c.3 0 .5.1.4.4 0 .1-.2.1-.4.3-.1-.2-.2-.3-.3-.5 0 0 .2-.2.3-.2zm-.8-.8c.2.1.3.3.5.5-.3 0-.4.1-.5 0l-.3-.3c.1 0 .3-.2.3-.2zm-1.9 0c.2.1.3.3.5.4l-.3.3c-.2-.3-.3-.4-.4-.6l.2-.1zm-2.7-2.8c.1.2.2.4.3.5-.1.1-.2.2-.3.2s-.2-.2-.2-.3c-.1-.1 0-.2.2-.4zM11.7 86c-.2.1-.3.2-.4.2-.2-.1-.3-.3-.5-.4l.3-.3c.3.1.4.2.6.5zm0 1.7c-.1.1-.3.2-.3.2a1.38 1.38 0 0 1-.3-.4l.2-.2a.78.78 0 0 0 .4.4zm-1.2-3.3c.2.1.3.2.5.4-.2.1-.4.3-.4.3-.1-.1-.3-.3-.4-.5.1-.1.2-.3.3-.2zm-.1 3.4c.1.3.3.4.3.6 0 .1-.2.2-.3.3-.1-.2-.3-.3-.4-.5.1-.1.3-.2.4-.4zm-.3-1.4c0-.1.3-.2.3-.2.1.1.3.3.3.4s-.2.2-.4.4c0-.2-.1-.4-.2-.6zm-.5.8c.3 0 .4.2.4.5 0 .1-.1.2-.1.2-.2-.1-.3-.3-.5-.5.1-.1.1-.2.2-.2zm.1 4.1c-.1-.1-.2-.2-.3-.4 0 0 .1-.2.2-.3.1.2.2.3.3.5 0 .1-.1.2-.2.2zm-.3-2s0-.2.1-.3c.1 0 .3 0 .3.1l.3.6c.3 0 .6.1.6.5 0 .1-.2.2-.3.3-.2-.2-.3-.5-.5-.7-.1-.2-.3-.3-.5-.5zm1.1 2.3c.3 0 .4.2.4.6-.1 0-.2.1-.2.1-.2-.2-.3-.4-.5-.6.1 0 .2-.1.3-.1zm1 3.2c-.4 0-.5-.2-.5-.6-.2-.2-.4-.3-.6-.5 0 0 0-.2.1-.3.1 0 .3 0 .3.1l.3.6c.3 0 .6.1.6.5 0 .1-.1.2-.2.2zm-.1-1.6c-.1 0-.2-.2-.3-.3a.76.76 0 0 1 .4-.2c.1 0 .2.2.4.3-.3 0-.4.2-.5.2zm-.4-2.1l.4-.4c.1.3.2.5.2.7 0 .1-.3.2-.3.2 0-.2-.2-.3-.3-.5zm.1-1.5c-.1 0-.1-.3-.1-.4s.2-.1.2-.2c.1.1.1.1.2.1a4.44 4.44 0 0 1 .8 1.1v.3c-.1 0-.3 0-.3-.1-.1-.3-.4-.6-.8-.8zm1.1 2.2a1.38 1.38 0 0 1 .3.4s-.1.1-.2.3c-.1-.2-.2-.3-.3-.5l.2-.2zm.3 4c-.1-.1-.2-.3-.3-.4l.3-.3c.1.2.2.3.2.4 0 .2-.1.2-.2.3zm.4-1c-.1-.4-.4-.6-.7-.7-.1 0-.1-.3-.1-.4s.2-.2.3-.2c.1.1.2.1.2.2.2.3.3.6.7.7.1 0 .2.2.2.4 0 .1-.2.3-.3.3-.1-.1-.3-.2-.3-.3zm.4 1.8c-.1-.1-.2-.3-.3-.4 0 0 .2-.2.2-.1.1 0 .2.2.4.3-.1.1-.3.2-.3.2zm.3-4.5l.2-.1.3.3c-.1 0-.1.1-.2.2-.1-.2-.2-.3-.3-.4zm.2 1.7c0-.1.2-.1.2-.1l1.3 1.2v.1s-.1.1-.2.1c-.2 0-.5 0-.5-.1a2.36 2.36 0 0 0-.8-.9v-.3zm.3 3.7c-.1 0-.1-.2-.1-.3.1 0 .2-.1.3-.1s.1.1.3.3c-.2 0-.4.1-.5.1zm-.2-1.8c-.1-.1 0-.3 0-.3.1-.1.3-.1.4 0l.9.9c.1.1.1.3 0 .4 0 .1-.1.1-.2.1s-.2 0-.2-.1c-.2-.3-.6-.6-.9-1zm1.4 2.7a1.38 1.38 0 0 1-.3-.4c.1-.1.2-.1.3-.2.1.2.2.3.2.5l-.2.1zm.7-.8l-.6-.6c.2-.1.4-.2.5-.2.2 0 .5.1.4.3 0 .3-.2.4-.3.5zm.4-2.7c0-.2.1-.3.2-.5.2.1.4.2.7.4-.3.1-.4.2-.5.2-.2.1-.4.3-.4-.1zm.1 1.3c.2 0 .4-.1.5 0 .2.2.3.4.4.7.8.1.8.1 1 .8.2 0 .4.1.6.2.1 0 .1.3 0 .4 0 .1-.3.1-.3 0-.2-.1-.3-.3-.4-.5-.5 0-.8-.4-1-.8-.2-.1-.5-.2-.7-.3s-.1-.4-.1-.5zm.2 4.3c-.1-.1-.1-.2-.2-.3.1 0 .2-.1.2-.1l.3.3c-.1 0-.1.1-.3.1zm.4-2c-.1-.1-.2-.2-.4-.3l.2-.2c.1 0 .2.2.4.3 0 .1-.1.2-.2.2zm1.9 3.6c-.1.1-.3.1-.4 0-.2-.2-.3-.5-.4-.7-.2 0-.5-.1-.7-.1-.1 0-.1-.3-.1-.4s.3-.2.3-.1c.2.1.4.3.6.5.2.1.5.3.7.4v.4zm.1-2.3s-.1-.1-.2-.1c.1-.1.2-.3.3-.4 0 0 .1 0 .3.1-.1.1-.2.3-.4.4zm.6 3l-.3-.3c.1 0 .1-.1.3-.1.1.1.1.2.2.3l-.2.1zm-.3-1.5a.76.76 0 0 1-.2-.4c0-.2.1-.4.4-.2.5.3 1 .7 1.4 1 .2.2.5.4.7.6.1.1.1.1.2.3-.1 0-.3.1-.3.1l-1.4-.8c-.4-.2-.6-.4-.8-.6zm3.2 4.2c0 .1-.2.1-.3.1-.4-.3-.8-.6-1.2-1v-.3c0-.1.1-.1.2-.1.5.3.9.6 1.3.9.1.1.1.3 0 .4zm.6.5c.1-.1.2-.2.3-.2l.2.2c-.1.1-.2.2-.3.2 0-.1-.1-.2-.2-.2zm.8 1.6c-.1-.2-.3-.4-.4-.6.1-.1.2-.2.3-.2.3 0 .7.4.6.6 0 .1-.2.1-.5.2zm.1-2.3c-.4-.2-.8-.4-1.2-.7-.2-.2-.4-.4-.7-.4-.1 0-.3-.1-.3-.2s0-.3.1-.4.3 0 .4.1l2.1 1.2c.1.1.1.2.2.4-.2-.1-.5.1-.6 0zm.6.9c0-.1.3-.2.3-.2.4.2.8.4 1.2.7.1 0 .1.1.2.3-.2.1-.4.3-.5.3-.4-.2-.8-.4-1.2-.7v-.4zm.5 1.9c-.2 0-.3-.2-.4-.3.2-.1.3-.2.5-.3.1 0 .2.2.3.3-.2.2-.3.4-.4.3zm1.9 1.9c-.3.1-1.4-.5-1.4-.8 0-.1.1-.3.1-.4l1.4.6c.1.1.2.2.2.3s-.2.2-.3.3zm.6-.9l-1.1-.9v-.2c0-.1.1-.1.1-.1.2 0 1.5.7 1.6.9 0 .1 0 .1.1.2-.1 0-.2.1-.3.1-.2.1-.4.1-.4 0zm1.6 1.6c-.3-.1-.6-.2-.9-.4-.1-.1-.3-.2-.2-.2.1-.1.3-.4.3-.3l1.6.6c.1 0 .1.1.2.4-.1 0-.2.1-.4.1-.1-.1-.4-.1-.6-.2zm2.6 1.8c-.1.1-.2 0-.3 0-.5-.1-1-.2-1.4-.4-.1 0-.1-.3-.2-.5.2 0 .3-.2.4-.1.5.1 1 .3 1.4.4.1 0 .2.1.3.2a.76.76 0 0 1-.2.4zm.5-.9c-.4-.1-.8-.3-1.2-.5-.1 0-.2-.3-.2-.3.1-.1.3-.2.4-.3.1.1.2.1.3.2.2.3.5.3.8.2s.4.1.3.3c0 .3-.2.4-.4.4zm4.5 3.1c-.2-.2-.5-.4-.5-.6 0-.3.3-.3.5-.2.3 0 .6 0 .5.4 0 .2-.3.3-.5.4zm.8-1.1c-.5.2-.7-.7-1.3-.3-.4.3-.9-.2-1.3-.1-.7.1-1.3-.2-1.9-.3-.2 0-.5-.1-.4-.4.1-.2.3-.2.4-.3h.3c.5 0 .6.7 1.3.4.4-.2.9 0 1.3.1.5 0 1 .1 1.4.1.2 0 .4 0 .6.1.1.1.2.2.2.4 0 .1-.2.2-.3.2-.1.1-.2.1-.3.1zm9.6 1.8l3.1-.3c.7 0 1.3-.1 2-.3.2-.1.5-.1.6.2.1.2.2.4-.2.5l-2 .3c-.3 0-.6.1-.9.1-.2 0-.4.1-.5.1-.6-.1-1.1-.1-1.7.2h-.3c-.1 0-.3-.1-.4-.1-.1-.1-.2-.3-.1-.4.1-.2.3-.3.4-.3zm1.9 1.6c-.3.1-.7.2-1.1.3-.1-.1-.3-.2-.3-.3 0-.2 0-.5.4-.5h.8c.1 0 .3.1.3.2 0 0 0 .2-.1.3zm-3.6-1.4c.2-.1.4-.1.5-.1.2 0 .3.1.4.1.3.1.3.3.1.5-.3.1-.7.2-1 .2-.1 0-.2-.2-.2-.4-.1-.1.1-.3.2-.3zm-3.8.3c0-.3.2-.3.4-.3h.8c0 .1 0 .3-.1.3-.2.2-.4.3-.7.5-.2-.2-.4-.3-.4-.5zm2 1.3c-.2.1-.4.1-.5.1-.2-.1-.4-.1-.5-.1-.2-.1-.2-.3-.1-.5.2-.2.9-.1 1 .2 0 0 .1.3.1.3zm-.2-1.3c-.1-.3.1-.4.4-.3h.9c0 .1 0 .3-.1.3-.2.2-.4.3-.7.5-.3-.2-.5-.3-.5-.5zm1.7 1.4h-.5s-.2 0-.3-.1-.1-.3-.2-.5c.1 0 .3-.1.4-.1.3 0 .5.1.8.2.1 0 .2.3.2.4-.1 0-.3.1-.4.1zm1.3.1c-.2-.1-.4-.2-.5-.3.2-.2.3-.4.5-.4.3-.1.6-.3.9.1.1.1.1.3.1.3l-1 .3zm.8 1c-.2-.1-.4-.2-.4-.3 0-.2.1-.4.3-.4.3-.1.7-.4 1.1 0 .1.1.1.3.1.3-.4.1-.8.3-1.1.4zm2.6-.3c-.1.1-.3.1-.5.1-.2-.1-.3-.1-.5-.2-.1-.1-.1-.2-.1-.3s.1-.2.2-.2c.3-.1.5-.1.8-.1.1 0 .3.2.4.3-.1.1-.2.3-.3.4zm27.5-5c.1-.1.4-.1.5 0 .2.2.1.4-.1.6-.4.3-.8.5-1.2.8-.7.4-1.4.9-2 1.3-.1.1-.3.1-.6.2l-.3-.3c0-.1 0-.2.1-.3.4-.3.9-.6 1.4-.9.7-.6 1.5-1 2.2-1.4zm-11.3 2.4c.1 0 .2.2.4.3-.2.2-.3.4-.4.4l-1.8.7c-.1 0-.3-.1-.4-.1 0-.1 0-.4.1-.4.7-.4 1.4-.7 2.1-.9zm-3 .1c0-.1.1-.2.2-.2l1.6-.6c.2-.1.5 0 .5.4-.1.1-.1.2-.3.2l-1.7.6h-.3v-.4zm.7 1.3l-.3.3-1.9.7c-.1 0-.2 0-.3-.1s0-.2 0-.3.1-.2.2-.2c.6-.2 1.3-.5 1.9-.6 0-.2.2 0 .4.2zm-6.6 1c-.1.1-.2.1-.3.1l-2.9.6h-.4c-.4-.3-.7-.1-1.1.2-.2.1-.6.1-.9.1-.1 0-.3-.2-.3-.3a.76.76 0 0 1 .2-.4c.1-.1.3-.1.5-.2.8-.2 1.7-.3 2.5-.4.7-.1 1.4-.1 2.1-.4.1-.1.3 0 .4 0s.2.1.2.2c.1.2.1.4 0 .5zm2.8-.8l-2 .6c-.2-.2-.3-.3-.5-.4.1-.1.2-.3.4-.3l1.8-.6c.1 0 .4 0 .5.2-.1.2-.1.5-.2.5zm0-1c-.6.2-1.3.4-1.9.5-.4.1-.8.1-1.2.2h-.4a9.83 9.83 0 0 1-1.6.5c-.8.2-1.6.3-2.5.4-.3-.2-.6-.2-.9.1-.1.1-.3.1-.4.1-.2 0-.6 0-.6-.4s.3-.3.5-.4c.4-.1.7-.1 1.1-.2.9-.1 1.8-.1 2.5-.3 1.1-.4 2.3-.5 3.5-.8l3-1c.1 0 .3-.1.3-.1.1.1.3.2.4.3 0 0-.1.3-.2.3-.5.4-1 .6-1.6.8zm.8.9c-.2-.2-.3-.3-.5-.4l.4-.4c.4-.2.9-.3 1.4-.4.2-.1.4-.1.6-.1.1 0 .2.1.2.2s-.1.3-.1.3l-2 .8zm.9 1.9l-1.9.6c-.1 0-.2 0-.3-.1-.2-.1-.3-.4 0-.5.7-.3 1.4-.5 2.1-.7.1 0 .3.2.4.3-.1.2-.2.4-.3.4zm5.9-2.3c-.5.2-1 .5-1.5.7l-3.1 1.2c-.1 0-.1.1-.2.1-.2-.1-.4-.1-.6-.2.1-.2.3-.4.4-.5l2.1-.8c.9-.3 1.7-.8 2.6-1.1s1.7-.8 2.5-1.2c.2-.1.4-.2.6-.2.1 0 .3.1.4.3-.1.2-.2.3-.3.4l-2.9 1.3zm1.9.4c-.1-.1-.2-.3-.1-.4.1-.2.2-.4.4-.4 1-.5 1.8-1.2 2.9-1.4.3-.1.6-.4.8-.6.7-.4 1.4-.8 2-1.3.2-.1.4-.4.6 0 .1.2.1.5-.3.7s-.8.5-1.2.7c-.6.4-1.2.9-1.8 1.1-.9.3-1.7.8-2.5 1.3-.2.1-.5.2-.8.3zm1.3.6h-.2c-.1 0-.2-.1-.2-.2 0-.2.1-.4.2-.5.3-.2.7-.4 1.1-.6l1.3-.7c.1-.1.4 0 .5.1s0 .4 0 .5l-2.7 1.4z"/><path d="M26.2 15.1c-.1.1-.2.1-.3.1-.1-.1-.2-.1-.2-.2 0 0 .1-.2.1-.1.2 0 .3 0 .4.2zM15.1 30.8a1.38 1.38 0 0 0-.4.3c0-.1-.1-.1-.1-.2.1-.1.1-.2.2-.2.1-.1.1 0 .3.1zm-1.8 57.3c.1.2.2.3.2.4l-.1.1c-.1-.1-.2-.2-.2-.3 0 .1.1 0 .1-.2zm11.1-74.9c.1 0 .2.1.3.1 0 .1.1.1.1.2-.1 0-.2.1-.3.1s-.2-.1-.3-.2c.1-.1.1-.2.2-.2zM8.6 42.3c.1.1.1.1.1.2s-.1.1-.1.2l-.2-.2.2-.2zm-.8-.7l.2.2c-.1.1-.1.1-.2.1s-.1-.1-.2-.1c.1-.1.1-.2.2-.2zm0 5.2c0 .1.1.2.1.2 0 .1-.1.1-.2.2l-.2-.2c.1-.1.2-.1.3-.2zM7 46c0 .1.1.2.1.2 0 .1-.1.1-.2.2-.1-.1-.1-.2-.1-.2 0-.1.1-.1.2-.2zm17.4 57c0 .1-.1.1-.1.2l-.2-.2.2-.2c0 .1.1.1.1.2zm-8.2-10.1c.1 0 .1.1.2.2-.1.1-.2.2-.2.1L16 93c0-.1.1-.1.2-.1zm-8-19c0 .1.1.2.1.2 0 .1-.1.1-.2.2-.1-.2-.2-.3-.2-.3.1-.1.2-.1.3-.1zm-1-4.5l.2.2c-.1.1-.1.1-.2.1s-.1-.1-.2-.1c.1-.1.1-.2.2-.2zm-2.8-4.2c-.1-.1-.1-.2-.1-.2.1 0 .2-.1.2-.1.1 0 .1.1.1.2-.1.1-.2.2-.2.1zm.9 6.4c-.1-.1-.1-.2-.1-.2.1-.1.2-.1.2-.2 0 .1.1.2.1.2 0 .1-.1.1-.2.2zm1 4.4l-.2-.2.2-.2c0 .1.1.1.1.2s0 .1-.1.2zm-.2-5.3c-.1-.1-.1-.2-.1-.2.1-.1.2-.1.2-.2 0 .1.1.2.1.2 0 .1-.1.2-.2.2zm-.9-15.3c-.1 0-.1-.1-.2-.1 0-.1.1-.2.2-.3l.2.2-.2.2zm2 25.2c-.1-.1-.1-.2-.1-.2.1 0 .2-.1.2-.1.1 0 .1.1.1.2-.1 0-.2.1-.2.1zm113.6-23.8l-.4-5c-.2-1.8-.6-3.5-1-5.2-.5-2.4-1.3-4.8-2.1-7.1-.3-.8-.7-1.4-.9-2.2-.5-1.4-1.2-2.8-1.8-4.1a12.81 12.81 0 0 0-1.1-2c-.4-.7-.7-1.4-1.2-2s-.9-1.2-1.2-1.9c-.9-1.6-2-2.9-3.1-4.3-.3-.4-.7-.7-1-1.1l-.9-1.3c-.3-.4-.8-.8-1.2-1.1s-.5-1.1-1.2-.9c-.2 0-.2-.3-.2-.6 0-.1 0-.3-.3-.2-.7.2-.7.1-.9-.7h-.1c-.2-.1-.5-.3-.5-.3.2-.4.4 0 .6 0h-.1c-.7-1-1.9-1.4-2.8-2.2h-.2c-.4.1-.4-.1-.4-.4.1-.4-.1-.6-.4-.8-.8-.5-1.3-1.3-2.3-1.4-.1 0-.2-.1-.2-.1-1.1-1.3-1.7-1.6-3.1-2.2-.5-.2-1.4-.1-1.5-1-.8-.5-1.5-1.1-2.5-1.2-.4 0-.8-.1-1-.5-.2-.3-.4-.2-.6-.1s-.4.2-.6.2l-1.4-.3c-.1 0-.3-.2-.2-.3s.2-.3.3-.3c.3 0 .6.1.8.3.3.2.5.2.7.1h.2c-.1 0-.1-.1-.2-.1-.6-.3-1.2-.7-1.9-.7-.3 0-.7 0-.8-.5 0-.1-.3-.1-.5-.2 0 .3-.1.6-.5.5-1.1-.2-2.2-.1-3.2-.4-.1 0-.3-.2-.3-.3 0-.3.2-.4.4-.3.8.2 1.6.1 2.4.3.4.1.7.1 1.1.1L81 4.3c-.2-.1-.4-.2-.6-.4-.4-.7-.6-.9-.8-.5-.1.2-.8.2-1 0-.1-.1-.1-.3-.1-.3.4-.5-.1-.4-.3-.4-.3-.1-.6-.3-.9-.3-.8 0-1.5.1-2.3-.1-.1 0-.1.1-.2.1-.3 0-.7 0-1-.1-.1 0-.1-.3-.2-.5.1 0 .2-.1.4-.1h.5c.1 0 .1-.1.2-.1-.1 0-.1 0-.2-.1-.6-.1-1.3-.3-1.9-.1-.9.2-1.9-.2-2.8.3h-.2c-.2-.1-.4-.2-.5-.3-.1-.2.1-.4.3-.4.4-.1.8-.1 1.2-.2h.3c-.1 0-.2 0-.3-.1-.4-.1-.8-.1-1.3-.1H68c-.4 0-.7.4-1.1.4h-.5l-3.1.5-3.4 1c-.3.1-.7.2-.8-.1-.1-.4.3-.4.6-.6h.1c1.2-.3 2.4-.8 3.6-.9.9-.1 1.7-.8 2.6-.3 0 0 .2-.1.2-.2.2-.3-.1-.2-.2-.2-.8-.1-1.5 0-2.3.2-.7.2-1.4.4-2.2.5-.2 0-.4-.1-.6-.2.1-.2.3-.4.4-.5s.2 0 .3-.1c.2-.1.5-.1.7-.2.1 0 .2-.1.3-.1h-.3c-.9 0-1.7.2-2.5.5-.6.2-1.2.3-1.8.5l-5.3 2-1.4.6c-.1 0-.4-.1-.5-.2-.2-.2.1-.4.3-.4l1.6-.7c.5-.2 1-.3 1.5-.5L57.8.2c.1-.1.3-.1.4-.2-.1 0-.3-.1-.4-.1h-.4l-2.6.9-1.2.3c-.2.1-.3.4-.5.4-.9 0-1.4.8-2.2 1-.2.1-.4.2-.6.2-.1 0-.3-.1-.5-.2.1-.2.1-.4.2-.5l1.9-.9c.9-.1 1.4-.1 1.9-.1.1-.1.2-.3.3-.4.2-.2.4-.3.6-.4-.3 0-.5.1-.8.1-.3.1-.6.1-.9.2-.9.3-1.8.7-2.6 1.2a.76.76 0 0 1-.4.2c-.2 0-.5 0-.6-.1-.1-.2 0-.4.3-.5.2-.1.3-.2.5-.3.1 0 .2-.1.2-.2h-.3c-.4.1-.8.3-1.3.5l-1.6.6c-.9.5-4 1.7-4.9 2.3-.2.1-.5.2-.6-.1 0-.1.2-.4.3-.5.6-.4 3.4-1.3 4-1.7.1 0 .1-.1.2-.2h-.3c-.6.2-2.6.7-4.1 1.5-.6.3-.2.4-.6-.2-.1-.1-.3 0-.5 0 .5.3.6.7.2.8-.2.1-.5-.1-.7-.1l.3-.6c-.4.1-.8.2-1.2.4-.1.1-.3.2-.4.3l.1.5c.1-.1.3-.2.4-.3s.3-.1.5-.1c0 .2 0 .5-.1.6-.2.2-.4.3-.5.4l.2.3c.1 0 .1-.1.2-.1l1.5-1c.2-.1 0-.1.2.2s.3.3.2.4-.2.1-.3.2l-1.5 1 .1.3c.6-.6 1.1-.8 1.8-1.3s3.7-1.3 4.5-1.9c.7-.5 1.4-.8 2.1-1.2.1 0 .2-.1.2-.1.3-.1.5 0 .6.3 0 .1-.2.3-.3.4-.2.1-.5.2-.7.3l-1.9 1.2c-.9.5-3.6 1.4-4.4 2l-1.5 1 .2.5c.1-.1.1-.2.2-.3.4-.3.4-.4.7-.7.7-.4 3.5-1.4 4.2-1.8.1-.1.3-.1.6-.2l.3.3c0 .1 0 .2-.1.3-.5.3-.9.7-1.4.9-.7.4-3.2 1.3-4 1.7-.1 0-.3.1-.4.1l.2.5c.1 0 .2-.1.3-.2.3-.2.2-.2.5 0 .1 0 .1.2.1.2-.2.2-.1.4-.3.5h-.3.3l3.4-1.2 3.3-1.9.6-.3c.1 0 .3.1.5.2-.2.3-.2.5-.3.6-.4.3-.8.5-1.2.8-.1 0-.2.1-.3.1.1 0 .2 0 .3-.1l1.4-.6c.3-.1.6-.5.9 0 .2.3.1 0 .1-.1s.1-.4.2-.4L53 4.6c.1-.1.3.1.5.2-.1.1-.2.3-.3.4 0 .1-.2.1-.2.1-.5.2-1 .5-1.5.7-.1 0-.1.1-.2.2.1 0 .2.1.3.1.6-.2 1.3-.5 1.9-.8.3-.1.7-.5 1 .2 0 .1.2.1.3.1h.1c-.1-.1-.1-.2-.1-.4.1-.1.1-.2.3-.2l1.7-.6h.3c.1.1.1.3 0 .4 0 .1-.1.2-.2.2-.4.2-.8.3-1.3.5.3 0 .6-.1.8-.1.4-.1.7-.3 1.1-.4.3-.1.6-.2.7.2 0 .1.2.3.3.2h.1c-.1-.1-.2-.1-.2-.2 0 0 .1-.3.2-.3l1.6-.6c.6-.2 1.3-.4 1.9-.5.4-.1.8-.1 1.2-.2h.4a9.83 9.83 0 0 1 1.6-.5l2.5-.5c.3.2.6.2.9-.1.1-.1.3-.1.4-.1.2 0 .6 0 .6.4s-.3.3-.5.4c-.4.1-.7.1-1.1.2-.9.1-1.8.1-2.5.3-1.1.4-2.3.5-3.5.9-1 .3-1.9.5-2.8.9.3 0 .6-.1.8-.2 2-.7 4.1-1.1 6.2-1.6 1.2-.3 2.4-.3 3.5-.6.2-.1.5 0 .8.1.1 0 .2.2.2.3s-.2.2-.3.3c-.6 0-1.2 0-1.9.1-.8.1-1.5.4-2.3.3-1.4.5-2.8.8-4.2 1h-.2c.1 0 .1.1.2.1.7-.1 1.4 0 2-.2s1.3.1 1.9-.4c.4-.3 1-.1 1 .2 0 .5-.4.5-.8.5-.2 0-.4.1-.6.1.2 0 .4.1.6.1h.5l3.9-.5c.6-.1 1.2 0 1.8-.1h.4c.7-.4 1.2-.2 1.8.3.4-.5.6-.6 1.3-.4.3.1.6.3.9 0h.2c.4.1.7.2 1.1.2s.8-.3 1.1-.2c.8.2 1.7 0 2.5.3.2.1.5.2.7.3v.2c-.4.1-.7.1-1 .1-.1 0-.2-.1-.3-.2-.2-.2-.3-.1-.5-.1-.3.1-.7.2-.9.1-.6-.2-1.1-.1-1.7-.1h-3.2l-2.5.2-2.3.2c-.1 0-.2.1-.3.2h1.9l3.9-.1c.7 0 1.3.1 2 0 1.2-.2 2.3.1 3.5.2.2 0 .5.1.4.4 0 .1-.3.3-.5.2-.4-.1-.7-.5-1-.4-.4.1-.7.2-1.1.2h-.2a.91.91 0 0 0-1 0c-.1.1-.3.1-.4 0-.9 0-1.7-.1-2.6-.1h-.4c-.5 0-.9.1-1.4.1h-.3c.1 0 .1 0 .2.1.5.1 1.1.3 1.6.3l3.3-.1c.3 0 .6 0 .9.1.1 0 .3.2.3.3s-.2.3-.3.3c-.2 0-.5.1-.7-.1-.5-.4-.8.2-1.2.1h-.2.2c.7.1 1.3.7 2.1.5.4-.1.9-.1 1 .5 0 .1.3.2.4.3.1 0 .1.1.2.1 0-.1-.1-.1-.1-.2.1-.1.3-.2.4-.3h.2c.5-.1.7.7 1.4.3.3-.2.9 0 1.4.1.5 0 1 .1 1.5.1.4 0 .8.1 1 .5.1.3.4.2.6.1l.4-.2c.6.1 1 .2 1.4.4.1 0 .3.1.3.2s-.1.4-.2.4h-.9l-1.3-.3c-.3-.1-.5-.1-.8-.2-.6-.2-1.1-.7-1.8-.3-.9-.3-1.9-.2-2.8-.3.5.2 1 .3 1.6.3.4 0 .8 0 .8.6 0 .1.3.2.4.3 0 0 .1 0 .2.1 0-.1-.1-.1 0-.3.1-.3.4-.2.6-.2s.6 0 .5.4c0 .1-.3.2-.4.3-.1 0-.2 0-.3-.1.7.3 1.4.3 2.1.6.3.1.9 0 .6.7 0 0 .2.3.3.3.3.1.5.3.7.4-.2-.2-.3-.4-.5-.5.2-.1.3-.2.5-.3.4 0 .7.3.6.5-.1.1-.3.2-.6.3.3.2.6.4 1 .3.2.5.6.4 1 .3.3 0 .5.2.6.6a.76.76 0 0 0 .2.4c.7-.6.7-.6 1.4-.2.3.1.6.1.8.3.3.2.6.5 1.1.5.1 0 .3.1.3.2s-.1.3-.2.3h-.6c-.2-.1-.4-.3-.6-.3-.6 0-.7-.4-.9-.8l-1.2.3c.5.3 1 .5 1.5.9.6.4 1.1 1 1.7 1.4 0-.1-.1-.1-.1-.2.2-.1.4-.2.5-.2.5.2.9.4 1.3.7.1.1.1.3.1.5-.2 0-.3.1-.5 0-.3-.1-.5-.2-.7-.4.5.4.9 1 1.7 1 0 0 .1.2.1.3.1.4.2.5.6.3.1-.1.3-.1.4 0 .3.2.5.5.7.6s.5.2.3.5-.4 0-.6 0h-.3l.1.1 1.5 1.4c.1.1.3.3.4.2.8-.2 1 .6 1.5.8.2.1.3.4 0 .5s-.3.2-.1.3c.2.2.4.4.5.6-.1-.1-.1-.2-.1-.3s.2-.1.4-.3c.1.2.2.3.3.5 0 .1-.2.2-.3.2s-.2 0-.3-.1c.2.2.4.4.5.6l1.5 1.8c.1.2.3.3.5.2s.2 0 .2.2-.1.4 0 .5c.2.4.5.8.8 1.2l2 3 2.7 4.9c.4.7.7 1.4 1 2.2.3.7.8 1.3.9 2.2l.3-.3.2.2c-.1.1-.2.1-.3.2l.8 2.6 1.5 5.4c.4 1.8.6 3.6.8 5.4l.4 5.9a16.32 16.32 0 0 1-.3 4.4c-.2 1.1-.3 2.2-.4 3.3s-.5 2.2-.4 3.3c0 .1-.1.2-.1.2-.2.8-.5 1.5-.7 2.3-.4 1.7-.9 3.4-1.5 5-.8 2.2-1.7 4.3-2.8 6.3a.45.45 0 0 0 0 .5c.2.2-.1.5-.2.4-.3-.1-.4 0-.4.3v.3l-1.8 2.7c-.1.2-.4.4-.1.7l-.1.2c-.4-.2-.4.2-.6.4l-2.8 3.6c-1.7 2.2-3.6 4.2-5.7 6-.6.5-1.2 1-1.7 1.6-.4.4-.7.8-1.3 1-.4.2-.9.4-1 1-.1.5-.3.6-.8.6h-.5l-1.8 1.2c-.9.6-1 .7-2.1 1.1v.1h.2c.1 0 .2.1.2.2s0 .3-.1.4h-.1c.1.2.1.3.2.5.1 0 .2-.1.3-.1s.4.1.5.2v.3c-.2.1-.4.1-.6.2v.1c.1.1.2.3.3.4 0 0 0 .1.1.2a1.38 1.38 0 0 1 .4-.3c.2-.1.4-.2.7-.3 0 .2.1.4.1.4-.3.2-.7.4-1.1.6.1.1.2.3.3.4.2.1.3.3.4.4-.1 0-.1.1-.2.1.2.4.3.9.5 1.3v.1c.1 0 .1-.1.2-.1.3-.1.5-.2.1-.5-.1-.1-.2-.2.1-.3.2 0 .3-.1.5-.2.4-.2-.1-.2.4.5h.2c.8-.8 2.2-.9 2.7-2.1 0-.1.1-.1.2-.2.3-.1.6-.3.9-.5a16.1 16.1 0 0 0 3-2.1c.5-.4 1-.9 1.5-1.4l2.2-2c1-.8 1.7-1.9 2.6-2.8 1.8-1.8 3.3-3.8 4.8-5.9.1-.2-.1-.5 0-.7s.6-.2.6-.3c.2-.6.7-1 1-1.5 1.2-1.9 2.3-3.9 3.3-5.9l3-7.3 1.5-5.3c.4-1.8.7-3.6.9-5.5l.6-5.3c0-.2.1-.4.1-.6.1-1.7.1-3.4 0-5.1zM58.5 1.6l1.9-.6c.1 0 .2 0 .3.1.2.1.3.4 0 .5-.7.3-1.4.5-2.1.7-.1 0-.3-.2-.4-.3.1-.2.2-.4.3-.4zM46.8 4.3c.8-.5 1.7-.9 2.6-1.4h.2c.1 0 .2.1.2.2 0 .2-.1.4-.2.4-.3.2-.7.4-1.1.6l-1.3.7c-.1.1-.4 0-.5-.1 0-.1 0-.4.1-.4zm.7 1.4c-.3.1-.6.4-.8.6-.7.4-1.4.8-2 1.3-.2.1-2.6.9-2.7.6-.1-.2-.1-.5.3-.7s3-1.1 3.4-1.3c.6-.4 1.2-.9 1.8-1.1.9-.3 1.7-.8 2.5-1.3l.9-.3c.1.1.2.3.1.4-.1.2-.2.4-.4.4-1.1.5-2 1.2-3.1 1.4zm5.3-1.2c-.9.3-1.7.8-2.5 1.2-.2.1-.4.2-.6.2-.1 0-.3-.1-.4-.3.1-.2.2-.3.3-.4 1-.5 2-.9 3-1.3.5-.2 1-.5 1.5-.7L57.2 2c.1 0 .1-.1.2-.1.2.1.4.1.6.2-.1.2-.3.4-.4.5l-2.1.8-2.7 1.1zm3.4-.3c-.7.3-1.4.6-2.2.8-.1 0-.2-.2-.4-.3.2-.2.3-.4.4-.4l1.8-.7c.1 0 .3.1.4.1.1.2.1.4 0 .5zm.7-.3c-.1 0-.3-.2-.4-.3l.3-.3 1.9-.7c.1 0 .2 0 .3.1s0 .2 0 .3-.1.2-.2.2c-.6.3-1.3.5-1.9.7zm2.6.3c-.4.2-.9.3-1.4.4-.2.1-.4.1-.6.1-.1 0-.2-.1-.2-.2s.1-.3.1-.3l2-.8c.2.2.3.3.5.4-.1.2-.2.4-.4.4zm2.9-.8l-1.8.6c-.1 0-.4 0-.5-.2-.1-.1 0-.4.1-.4l2-.6c.2.2.3.2.5.3l-.3.3zm6.3-1.3c-.1.1-.3.1-.5.2-.8.2-1.7.3-2.5.4-.7.1-1.4.1-2.1.4-.1.1-.3 0-.4 0S63 3 63 2.9s0-.3.1-.4.2-.1.3-.1l2.9-.6h.4c.4.3.7.1 1.1-.2.2-.1.6-.1.9-.1.1 0 .3.2.3.3-.1.1-.2.3-.3.3zm5 .9c.2.1.4.2.5.3-.2.2-.3.4-.5.4-.3.1-.6.3-.9-.1-.1-.1-.1-.3-.1-.3.5 0 .8-.1 1-.3zm-.8-.9c.2.1.4.2.4.3 0 .2-.1.4-.3.4-.4.1-.7.4-1.1 0-.1-.1-.1-.3-.1-.3.4-.2.8-.3 1.1-.4zM72.2 4h-.8c-.2 0-.4-.1-.4-.1 0-.1 0-.4.1-.4.3-.1.7-.2 1.1-.3.1.1.3.2.3.3.1.3 0 .5-.3.5zm-1.8-.9c-.1 0-.3-.2-.4-.3.1-.2.2-.4.3-.5s.3-.1.5-.1c.2.1.3.1.5.2.1.1.1.2.1.3s-.1.2-.2.2c-.2.1-.5.2-.8.2zM73 5l-3.1.3c-.7 0-1.3.1-2 .3-.2.1-.5.1-.6-.2 0-.2-.1-.4.2-.4l2-.3c.3 0 .6-.1.9-.1.2 0 .4-.1.5-.1.6.1 1.1.1 1.7-.2h.3c.1 0 .3.1.4.1.1.1.2.3.1.4 0 .1-.2.2-.4.2zm1.8-.1c-.2 0-.4.1-.5.1-.2 0-.3-.1-.4-.1-.3-.1-.3-.3-.1-.5.3-.1.7-.2 1-.2.1 0 .2.2.2.4 0 .1-.1.2-.2.3zm.1-1.2c-.1 0-.2-.3-.2-.4s.2-.1.3-.2h.5s.2 0 .3.1c.2.2.2.4.3.5-.1 0-.3.1-.4.1-.3 0-.6 0-.8-.1zm1.5 1.1c-.1 0-.1 0 0 0h-.8c0-.1 0-.3.1-.3.2-.2.4-.3.7-.5.2.2.4.3.4.5 0 .3-.2.3-.4.3zm.3-1.2c-.1-.1-.1-.3-.1-.3.2-.1.4-.1.5-.1.2.1.4.1.5.1.2.1.2.3.1.5-.2.2-.9 0-1-.2zm1.5 1.2s-.1.1 0 0h-.8c0-.1 0-.3.1-.3.2-.2.4-.3.7-.5.2.2.4.3.4.5 0 .3-.2.4-.4.3zM80 8.3h-.3c-.1-.1-.2-.2-.3-.4a1.38 1.38 0 0 1 .4-.3h.4c.1.1.3.2.3.4.1.4-.2.3-.5.3zm7.6 3.3h-.3c-.4-.2-.8-.6-1.3-.3 0 0-.2-.1-.2-.2a.76.76 0 0 1 .2-.4c.1-.1.3 0 .4 0 .5.1 1 .2 1.4.4.1 0 .2.2.2.3-.2 0-.3.2-.4.2zm26.3 21.6c.1.1.2.2.2.3-.1.1-.2.2-.4.2-.1 0-.1-.2-.2-.4.2 0 .3-.1.4-.1zm-.3 1.8c.1.1.2.3.3.5-.1 0-.2.1-.3.1-.1-.1-.2-.2-.3-.4.2-.1.3-.2.3-.2zm-.5-.8c.1.2.2.3.2.4l-.2.2c-.1-.1-.2-.2-.2-.3-.1-.1.1-.2.2-.3zm-.4 2c0-.1.1-.2.3-.4.1.3.2.5.2.7l-.2.2c-.2 0-.3-.2-.3-.5zm-1.9-7.3a1.38 1.38 0 0 1 .3.4s-.1.2-.2.3c-.1-.2-.2-.3-.3-.5 0 0 .2-.1.2-.2zm.3 2.1s0 .2-.1.3c-.1 0-.3 0-.3-.1l-.3-.6c-.3 0-.6-.1-.6-.5 0-.1.2-.2.3-.3.2.2.3.5.5.7l.5.5zm-1 1.4c-.1-.2-.3-.4-.3-.6 0-.1.2-.2.3-.3.1.2.3.3.4.5 0 .1-.2.3-.4.4zm.3 1.5c0 .1-.3.2-.3.2-.1-.1-.3-.3-.3-.4s.2-.2.4-.4c.1.2.2.4.2.6zm-.4-5.2c-.3 0-.4-.2-.4-.6.1 0 .2-.1.2-.1.2.2.3.4.5.6-.1 0-.2.1-.3.1zm-1-3.2c.4 0 .5.2.5.5.2.2.4.3.6.5 0 0 0 .2-.1.3-.1 0-.3 0-.3-.1l-.3-.6c-.3 0-.6-.1-.6-.5l.2-.1zm.5 7.2l-.2.2-.4-.4c.1-.1.3-.2.3-.2a1.38 1.38 0 0 0 .3.4zm-.3-5.6c.1 0 .2.2.3.3a.76.76 0 0 1-.4.2c-.1 0-.2-.2-.4-.3.2-.1.4-.2.5-.2zm.3 2.1l-.4.4c-.1-.3-.2-.5-.2-.7 0-.1.3-.2.3-.2.1.1.2.3.3.5zm-1.5-4.7c.1.1.2.3.3.4l-.3.3c-.1-.2-.2-.3-.2-.4 0-.2.1-.3.2-.3zm-.7-.8a1.38 1.38 0 0 1 .3.4s-.2.2-.2.1c-.1 0-.2-.2-.4-.3.1-.1.2-.3.3-.2zm-.9-.9c.1 0 .1.2.1.3-.1 0-.2.1-.3.1s-.2-.1-.3-.3c.3 0 .4-.1.5-.1zm-2.7-3c.1.1.1.2.2.3-.1 0-.2.1-.2.1l-.3-.3c.2 0 .2-.1.3-.1zm-.3 2a1.38 1.38 0 0 0 .4.3l-.2.2c-.1 0-.2-.1-.4-.3 0-.1.1-.2.2-.2zm-1.9-3.6c.1-.1.3-.1.4 0 .2.2.3.5.4.7.2 0 .5.1.7.1.1 0 .1.3.1.4s-.3.2-.3.1c-.2-.1-.4-.3-.6-.5-.2-.1-.5-.3-.7-.4-.1-.1-.1-.3 0-.4zm-.7-.7l.3.3c-.1 0-.1.1-.3.1-.1-.1-.1-.2-.2-.3l.2-.1zm-3.5-3.1c-.1.1-.2.2-.3.2l-.2-.2c.1-.1.2-.2.3-.2l.2.2zm-.9-1.6c.1.2.3.4.4.6-.1.1-.2.2-.3.2-.3 0-.7-.4-.6-.6.1-.1.3-.1.5-.2zm-1.2-.6c.2 0 .3.2.4.3-.2.1-.3.2-.5.3-.1 0-.2-.2-.3-.3.2-.2.4-.3.4-.3zm-1.9-1.8c.3-.1 1.4.5 1.4.8 0 .1-.1.3-.1.4l-1.4-.6c-.1-.1-.2-.2-.2-.3s.2-.3.3-.3zm-.5.9l1.1.9v.2c0 .1-.1.1-.1.1-.2 0-1.5-.7-1.6-.9 0-.1 0-.1-.1-.2.1 0 .2-.1.3-.1.1-.1.3-.1.4 0zM92 10c.1.1.3.2.2.2-.1.1-.3.4-.3.3l-1.6-.6c-.1 0-.1-.1-.2-.4.1 0 .2-.1.4-.1s.5.1.7.1c.2.3.5.4.8.5zm-.4 1.2c-.2.1-.4.3-.5.3-.6-.2-1-.4-1.5-.5-.1-.1-.2-.3-.3-.4.2-.1.4-.3.5-.2.5.2 1 .6 1.7.6 0-.1.1.1.1.2zm-3.1-3.3c.1-.1.2 0 .3 0 .5.1 1 .2 1.4.4.1 0 .2.3.2.5-.2 0-.3.2-.4.1-.5-.1-1-.2-1.4-.4-.1 0-.2-.1-.3-.2 0-.2.1-.3.2-.4zm-5-2.2c.2.2.5.4.5.5 0 .3-.3.3-.5.2-.3 0-.6 0-.5-.4 0-.1.3-.1.5-.3zm1.7 2.8c-.2.4-.6.3-.9.2-.7-.1-1.4-.1-2.2-.2-.2 0-.4 0-.6-.1-.1 0-.3-.2-.2-.3s.2-.3.3-.3c.4-.1.8.3 1.1.4s.7-.4 1.1-.1.9 0 1.3.1c.1 0 .2.1.3.2-.1 0-.2 0-.2.1zm1.6.5c-.3 0-.6.1-.8.1-.2-.1-.3-.4-.4-.6.1-.1.1-.2.1-.2.4.1.7.2 1.1.4.1 0 0 .3 0 .3zm.2-.8c-.5 0-.6-.7-1.3-.4-.4.2-.9 0-1.3-.1-.5 0-1-.1-1.4-.1-.2 0-.4 0-.6-.1-.1-.1-.2-.2-.2-.4 0-.1.2-.2.3-.2h.3c.5-.2.7.7 1.3.3.4-.3.9.2 1.3.1.7-.1 1.3.2 1.9.3.2 0 .6.1.4.4-.1.2-.3.2-.4.3-.2-.1-.3-.1-.3-.1zm1.7 1.4c-.2-.3-.5-.3-.8-.2s-.4-.1-.3-.3c0-.1.3-.3.4-.3.4.1.8.3 1.2.4.1 0 .2.3.2.3-.1.1-.3.2-.4.3-.1 0-.2-.1-.3-.2zm.6 3.6s-.1-.1-.3-.2c.3-.2.4-.3.6-.4a1.44 1.44 0 0 0 .2.3c-.1 0-.3.2-.5.3zm.8-1h-.2c-.4-.1-.8-.2-1.1-.4a.76.76 0 0 1-.2-.4c0-.1.3-.2.4-.2l1.2.6c.1 0 .1.2.1.2-.1.2-.2.2-.2.2zm.8 1.4c-.4 0-.6-.3-.7-.8.1 0 .2-.1.3-.1.3.1.5.2.7.3.1.1.1.4.2.5-.1.1-.3.1-.5.1zm.5-.9c-.1-.1-.1-.3-.2-.5.2 0 .4-.1.5-.1.5.2.8.7 1.4.7l.1.2-.3.3c-.6-.3-1.1-.4-1.5-.6zm2.1 1.9c-.3 0-.5-.4-.5-.7.1 0 .3-.1.4-.1.3 0 .5.3.6.6 0 0-.3.2-.5.2zm1 .6c-.1-.2-.2-.3-.3-.5.2-.1.3-.2.5-.2 0 0 .2.2.2.3 0 .2-.2.2-.4.4zm.8 1c-.1 0-.2-.1-.3-.3.3 0 .4-.1.5-.1s.1.2.1.3c-.1.1-.2.1-.3.1zm.4-2.1c0 .1-.3.2-.3.2-.4-.2-.8-.4-1.2-.7-.1 0-.1-.1-.2-.3.2-.1.4-.3.5-.3.4.2.8.4 1.2.7 0 .1.1.3 0 .4zm.7 3c-.2-.1-.4-.2-.6-.4.2-.2.4-.4.5-.3.2.1.3.3.4.5 0-.1-.2.2-.3.2zM98 19c-.1 0-.2-.2-.3-.4l.3-.3c.2.1.3.2.5.4-.2.1-.4.3-.5.3zm.5-2.2c-.1.1-.3 0-.4-.1L96 15.5c-.1-.1-.1-.2-.2-.4.3-.1.5-.2.6-.1.4.2.8.4 1.2.7.2.2.4.4.7.4.1 0 .3.1.3.2 0 .2 0 .4-.1.5zm-.7-1.7c-.1 0-.1-.2 0-.3 0-.1.2-.1.3-.1l1.3 1v.3c0 .1-.1.1-.2.1-.5-.3-1-.6-1.4-1zm1.5 6c-.1 0-.2-.2-.3-.2.1-.1.3-.2.5-.4.1.2.2.3.2.3-.1.2-.2.3-.4.3zm-.5-1.8a.76.76 0 0 1 .4-.2c.2 0 .4.1.3.4 0 .1-.2.2-.3.3-.2-.2-.3-.3-.4-.5zm1.4 1c-.1 0-.3-.1-.5-.2.2-.1.3-.1.3-.1.1 0 .2.1.3.2l-.1.1zm-.7-1.7a3.04 3.04 0 0 0-.7-.5c-.1 0-.1-.1-.2-.3.1 0 .3-.1.3-.1l1.4.8c.2.2.5.3.7.5a.76.76 0 0 1 .2.4c0 .2-.1.4-.4.2-.3-.3-.8-.7-1.3-1zm1.7 2.4s-.1 0-.3-.1c.2-.1.3-.3.4-.4 0 0 .1.1.2.1-.1.2-.1.3-.3.4zm1.6 4c-.2-.1-.3-.3-.5-.5.3 0 .4-.1.5 0l.3.3c-.1 0-.3.2-.3.2zm-.6-2.4c-.2 0-.4-.1-.6-.2-.1 0-.1-.3 0-.4 0-.1.3-.1.3 0 .2.1.3.3.4.5.6 0 .8.4 1 .8.2.1.5.2.7.3.1.1 0 .3 0 .5-.2 0-.4.1-.5 0-.2-.2-.3-.4-.4-.7-.7-.1-.7-.1-.9-.8zm1.8 3.2c-.2-.1-.4-.2-.7-.4.3-.1.4-.2.5-.2s.4-.2.4.1c-.1.2-.2.4-.2.5zm.7-.8c-.2-.1-.3-.3-.5-.4l.3-.3c.2.2.3.4.4.6l-.2.1zm-.1-1.6c-.2 0-.5-.1-.4-.3 0-.1.2-.3.3-.4l.6.6c-.3 0-.4.1-.5.1zm.4-1.4l.2-.1c.1.1.2.2.3.4-.1.1-.2.1-.3.2-.1-.2-.1-.4-.2-.5zm.2 1.6c0-.1.1-.1.2-.1s.2 0 .2.1c.4.3.7.7 1 1.1.1.1 0 .3 0 .3-.1.1-.3.1-.4 0l-.9-.9c-.1-.2-.1-.4-.1-.5zm0 1.9v-.1s.1-.1.2-.1c.2 0 .5 0 .5.1a2.36 2.36 0 0 0 .8.9s.1.2 0 .2c0 .1-.2.1-.2.1-.4-.3-.9-.7-1.3-1.1zm1.5 2.8l-.3-.3c.1 0 .1-.1.2-.2.1.1.2.2.2.3.1.1-.1.2-.1.2zm.8-.5c-.1-.2-.2-.4-.3-.5.1-.1.2-.2.3-.2s.2.2.2.3-.1.2-.2.4zm-.3-1.8c-.1 0-.2-.2-.2-.4 0-.1.2-.3.3-.3a.76.76 0 0 1 .4.2c.1.4.4.6.7.7.1 0 .1.3.1.4s-.2.2-.3.2c-.1-.1-.2-.1-.2-.2-.3-.2-.4-.5-.8-.6zm1 1.8c.1.2.2.3.3.5l-.2.2c-.1-.1-.2-.2-.3-.4 0-.1.1-.2.2-.3zm0 2c.1 0 .3 0 .3.1.2.4.5.6.9.8.1 0 .1.3.1.4s-.2.1-.2.2c-.1-.1-.1-.1-.2-.1-.3-.3-.6-.7-.8-1-.2-.2-.1-.3-.1-.4zm.6 4.5c.2-.1.3-.2.4-.2.2.1.3.3.5.4l-.3.3c-.2-.1-.4-.3-.6-.5zm1.3 1.6c-.2-.1-.3-.2-.5-.4.2-.1.4-.3.4-.3.2.1.3.3.4.5-.1 0-.3.2-.3.2zm.9-2.8c-.3 0-.4-.2-.4-.5 0-.1.1-.2.1-.2.2.1.3.3.5.4-.1.2-.2.3-.2.3zm1.1 6.2c-.1-.1-.3-.2-.3-.3s.2-.2.3-.4c.1.2.2.3.2.4 0 0-.2.2-.2.3zm.5-1c0-.1.2-.2.3-.4.1.1.2.2.2.3s-.1.2-.2.3c-.1-.1-.3-.1-.3-.2zm.4 5.3l-.3-.3c.1 0 .3-.1.3-.1.1.1.1.2.2.3-.1 0-.2.1-.2.1zm.6-6.9c.1.3.2.4.2.6 0 .1-.2.1-.3.2-.1-.2-.2-.3-.2-.5.1 0 .2-.1.3-.3zm.1 6.2c-.1-.1-.2-.2-.2-.3a.76.76 0 0 1 .2-.4c.1 0 .1.1.2.1 0 .1.1.2.1.3 0 .2-.2.2-.3.3zm.3-1.8c-.1-.2-.2-.3-.2-.4s.2-.1.3-.2c.1.1.2.2.2.4-.1 0-.2.1-.3.2zm.5.7c-.1 0-.1-.1-.3-.3.2 0 .3-.1.4-.1s.1.2.2.3c-.1 0-.2.1-.3.1zm-22.2 64.5s.2.2.2.3c0 .3-.2.4-.5.3-.1 0-.2-.2-.3-.2.1-.5.4-.4.6-.4zm-1.4-.6c.1-.1.3-.2.4-.1.1 0 .2.3.2.3-.1.1-.2.2-.4.2-.1 0-.2-.1-.4-.2l.2-.2zm-.4 1.5c-.1.1-.3 0-.5 0-.1 0-.1-.2-.3-.4.4-.2.8-.3 1.1-.5.2-.1.4 0 .6 0v.2c-.3.3-.6.5-.9.7zm.7 2.8s-.1-.2-.2-.2c.1-.1.2-.1.3-.2.1.1.1.2.2.3-.1 0-.2.1-.3.1zm.6-1.4s.2.1.2.2c0 .4-.3.4-.5.4l.3-.6zm-.3-1c.2.1.4.3.5.4l-.1.2c-.3-.1-.3-.1-.6-.3l.2-.3zm.5 2.7l-.3-.3c.2-.1.3-.2.4-.2s.2.1.2.2-.1.2-.3.3zm2.1-5.8s.2.1.2.2c0 .2 0 .5-.4.5-.1 0-.3-.1-.7-.3l.9-.4zm-.9 2.7c.1 0 .2.2.3.3a3.17 3.17 0 0 1-.6.5c-.1-.2-.2-.3-.2-.3 0-.4.2-.5.5-.5zm.2 2.7c-.3-.1-.5-.2-.7-.3.2-.1.3-.2.5-.2.1 0 .2.2.3.3.1 0 0 .1-.1.2zm.4-1.2c-.1 0-.2-.1-.3-.2 0-.4.2-.6.5-.5.1 0 .3.2.3.3 0 .3-.3.4-.5.4zm10.1-14.2s.3.2.3.3c-.1.2-.2.3-.3.4-.1 0-.2.1-.3.1 0-.1-.2-.3-.1-.4 0-.2.2-.3.4-.4zm-1.1.9l.2.2a1.38 1.38 0 0 1-.4.3s-.1-.1-.3-.2c.2-.1.3-.2.5-.3zm-.5 3.1c0 .1-.2.2-.3.4l-.2-.4c.1-.1.3-.2.4-.3-.1 0 .1.2.1.3zm-2-.4a1.44 1.44 0 0 1 .2.3c-.1.2-.3.3-.5.5-.1-.2-.2-.3-.2-.4.1-.1.3-.3.5-.4zm-4.6 4.7c.1 0 .2.1.2.2-.1.1-.3.2-.4.3l-.3-.3c.3-.1.4-.2.5-.2zm-1.4 3c.1-.2.3-.3.5-.4.1.1.3.3.2.3-.1.2-.3.3-.5.5l-.2-.4zm.8 2.2c-.1-.1-.2-.2-.3-.2.1-.1.2-.2.3-.2s.2.2.3.3c-.1 0-.2.1-.3.1zm.5-1.1l-.2-.2c.1-.4.3-.6.6-.5.1 0 .2.3.2.3-.3.2-.4.3-.6.4zm.6-3c.1-.2.3-.3.5-.5.1.2.2.3.2.4 0 .3-.2.4-.5.3-.1 0-.2-.2-.2-.2zm.3 3.6c-.1 0-.1-.2-.2-.4.2 0 .4-.1.4-.1.1.1.1.3.2.4-.1.1-.3.2-.4.1zm.4-4.9l-.3-.3c.1-.1.2-.1.3-.2.1.2.2.3.2.4 0 0-.2.2-.2.1zm.1-1.4c0-.3.2-.5.5-.4.1 0 .3.3.3.4-.1.2-.3.3-.6.5-.1-.3-.2-.4-.2-.5zm.4 3.7l-.2-.2.4-.4.3.3c-.1.1-.3.2-.5.3zm2.1-3.9c.1.1 0 .4 0 .4-.4.1-.7.4-1 .7-.2.2-.5 0-.5-.3.1-.2 1.3-.9 1.5-.8zm-.2 1.8c0 .1-.1.1-.2.3-.1-.1-.2-.3-.2-.3.1-.1.2-.1.3-.1l.1.1zm-1.1 2.9l-.2-.2c.1-.1.2-.3.4-.4.2.2.3.3.3.4-.1.1-.3.2-.5.2zm1.2-.5c-.1 0-.3-.1-.6-.2.3-.2.5-.4.7-.5.1.1.3.3.3.4-.1.1-.3.3-.4.3zm.8-2.8c-.1 0-.3-.2-.5-.4.3-.1.5-.3.7-.3.1 0 .2.1.2.2.1.2-.1.5-.4.5zm.4-3.1c.2-.1.3-.2.5-.3l.2.2c-.1.1-.2.2-.4.3 0 .1-.1-.1-.3-.2zm.3 3.9c-.1 0-.2-.1-.3-.2.2-.1.3-.3.5-.3a1.44 1.44 0 0 0 .2.3c-.2 0-.3.1-.4.2zm.3-5.2c-.1 0-.2-.1-.3-.2 0-.1-.1-.1-.1-.2.1 0 .3-.1.4-.1s.2.2.3.3c-.2 0-.2.1-.3.2zm.8-1.8v.2c-.1.1-.2.1-.3.1l-.2-.2c.3 0 .4 0 .5-.1zm-.5 3.9l.4-.4.2.4a.76.76 0 0 1-.4.2c-.1 0-.2-.2-.2-.2zm.6 2.4c-.1-.2-.2-.3-.2-.4s.2-.2.3-.3c.1.1.2.2.2.3 0 .2-.2.3-.3.4zm.7-2.9s-.2-.2-.4-.3c.2-.2.4-.3.6-.4 0 0 .2.2.2.3s-.2.3-.4.4zm.7.9c-.1 0-.1-.1-.3-.3.2-.1.4-.3.6-.4l.2.2c-.1.4-.2.6-.5.5zm.6-4.9c.2-.1.4-.3.6-.3.1 0 .2.3.2.4-.1.1-.3.3-.4.3s-.3-.2-.4-.4zm.7 4c-.1-.1-.2-.3-.2-.3l.3-.3.2.2c-.1.2-.2.3-.3.4zm.6-4.7c.1-.2.2-.3.3-.4l.4.4c-.2.1-.3.2-.5.3-.1 0-.3-.2-.2-.3zm.9 1l-.4-.4c.2-.1.4-.2.5-.3l.2.2c-.1.3-.2.4-.3.5zm1.8-7.7c.1 0 .2.2.2.2l-.3.3-.4-.4c.2 0 .3-.1.5-.1zm-.1 1.7c.1 0 .1.2.2.2l-.3.3c-.1 0-.2-.1-.5-.3.3-.1.5-.2.6-.2zm.1 5.9l-.2-.2c.2-.1.3-.2.4-.3 0 .1.1.2.1.2-.1.2-.2.3-.3.3zm.1-1.8c-.1 0-.1-.1-.2-.2.2-.1.3-.1.3-.1.1 0 .1.2.2.3h-.3zm.7.9c0-.1-.1-.2-.1-.4.1 0 .2-.1.3-.1s.1.1.2.2c-.2.2-.3.3-.4.3zm1-8l-.3-.3c.1 0 .1-.1.2-.1.1.1.2.1.3.2l-.2.2zm0-1.9c-.1-.1-.2-.1-.2-.2s.1-.2.2-.4c.1.1.2.2.1.2.1.2 0 .3-.1.4z"/><path d="M108.9 32.6c-.1-.2-.2-.3-.2-.4l.1-.1c.1.1.2.2.2.3 0 0-.1.1-.1.2zM96 105.2c.1-.1.2-.1.3-.1.1.1.2.1.2.2l-.1.1c-.1 0-.2-.1-.4-.2zm11.1-15.6c.2-.1.3-.2.4-.3 0 .1.1.1.1.2-.1.1-.1.2-.2.2 0 0-.1 0-.3-.1zm-9.3 17.5c-.1 0-.2-.1-.3-.1 0-.1-.1-.1-.1-.2.1 0 .2-.1.3-.1s.2.1.3.2c-.1 0-.1.2-.2.2zm15.8-29c-.1-.1-.1-.1-.1-.2s.1-.1.1-.2l.2.2-.2.2zm.8.8l-.2-.2c.1-.1.1-.1.2-.1s.1.1.2.1c-.1 0-.1.1-.2.2zm0-5.3c0-.1-.1-.2-.1-.2 0-.1.1-.1.2-.2.1.1.1.2.1.2 0 .2-.1.2-.2.2zm.8.9c0-.1-.1-.2-.1-.2 0-.1.1-.1.2-.2.1.1.1.2.1.2 0 .1-.1.1-.2.2zM97.8 17.9c0-.1.1-.1.1-.2l.2.2-.2.2c0-.1-.1-.2-.1-.2zm8.2 10c-.1 0-.1-.1-.2-.2.1-.1.2-.2.2-.1l.2.2s-.1.1-.2.1zm8 18.9c0-.1-.1-.2-.1-.2 0-.1.1-.1.2-.2.1.1.1.2.1.2 0 .1-.1.1-.2.2zm1 4.4l-.2-.2c.1-.1.1-.1.2-.1s.1.1.2.1c-.1.1-.1.2-.2.2zm2.8 4.1c.1.1.1.2.1.2-.1 0-.2.1-.2.1-.1 0-.1-.1-.1-.2.1 0 .2-.1.2-.1zm-.9-6.2c.1.1.1.2.1.2-.1.1-.2.1-.2.2 0-.1-.1-.2-.1-.2 0-.1.1-.2.2-.2zm-1-4.5l.2.2-.2.2c0-.1-.1-.1-.1-.2 0 0 0-.1.1-.2zm.2 5.3c.1.1.1.2.1.2-.1.1-.2.1-.2.2 0-.1-.1-.2-.1-.2 0-.1.1-.2.2-.2zm.9 15.3c.1 0 .1.1.2.1l-.2.2-.2-.2c.1-.1.2-.1.2-.1zm-2-25.1c.1.1.1.2.1.2-.1 0-.2.1-.2.1-.1 0-.1-.1-.1-.2.1 0 .2-.1.2-.1z"/></g><path d="M86.3 39.2L71.5 72 55.8 39.2h-8.9l9.2 19 4.5 9.4 11 23.3 23.5-51.7z" fill="#8e1537"/><path d="M49.7 71.8L34.2 39.2h-8.8l24.5 51.3 7.8-17.1-4.4-9.5z" opacity=".85" fill="#483729"/><path d="M60.5 67.2l-4.4-9.6-2.8 6.3 4.4 9.5z" fill="#010101"/><path d="M272.4 69.7L267 81.9c-.2.5-.5 1.3-.5 1.5 0-.1-.3-1-.6-1.5l-5.8-12.2h-3.8l3.7 7.7-2 4.4c-.2.6-.6 1.4-.6 1.5 0-.1-.3-1-.5-1.5l-5.4-12.2h-3.7l9.6 21.2 3.9-8.2.7-1.7.7 1.7 3.9 8.2 9.6-21.2h-3.8zm8.1 0v20.7h3.5V69.7h-3.5zm24 0v12.2c0 .4.2 1.4.3 1.5-.1-.1-.6-.9-.9-1.2l-13.3-12.8v21.1h3.5V78.3c0-.3-.2-1.2-.2-1.3.1.1.6.9.8 1.1L308 90.9V69.7h-3.5zM318 87.3v-6.1h8.5v-3.1H318v-5.3h9.3v-3.1h-12.8v20.7h12.8v-3.1H318z" fill="#8e1537"/><path d="M162.7 39l-5.6 14.9c-.2.5-.5 1.4-.5 1.5l-.5-1.5-2.9-7-1.6-3.6-1.8-4.3h-2.2l3.4 7.9-2.9 7c-.2.5-.5 1.4-.5 1.5l-.5-1.5-5.7-14.9h-2.2l8.2 21.2 4-9.5c.3-.6.6-1.6.6-1.6s.3 1 .6 1.6l4 9.5 8.2-21.2h-2.1zm7.4 0v20.7h2.1V39h-2.1zm12.1 18.8V39h-2.1v20.7H192v-1.9h-9.8zm16.1 0V39h-2.1v20.7h11.9v-1.9h-9.8zm22.2-19.3l-9.8 21.2h2.3l2.9-6.4h9.6l3 6.4h2.3l-10.3-21.2zm-3.7 12.9l3.2-7c.2-.6.5-1.5.6-1.5l.6 1.5 3.3 7h-7.7zm37.7-12.9l-8.2 16.1c-.4.7-.7 1.5-.7 1.5s-.3-.9-.6-1.5l-8-16.1-2.6 21.2h2.1l1.6-13.2c.1-.6.1-1.5.1-1.5l.7 1.5 6.8 13.6 7-13.9.7-1.5.1 1.5 1.9 13.5h2.1l-3-21.2zm10.1 19.3V50h9v-2h-9v-7.1h9.4V39h-11.5v20.7h11.9v-1.9h-9.8zM278.2 39v1.9h6.3v18.8h2.1V40.9h6.3V39h-14.7zm18.3 0v1.9h6.4v18.8h2.1V40.9h6.3V39h-14.8zm21 18.8V50h9v-2h-9v-7.1h9.7V39h-11.8v20.7h11.9v-1.9h-9.8zM156.7 69.6l-6.9 15.3c-.3.6-.5 1.5-.6 1.5 0 0-.3-.9-.6-1.5l-7.2-15.3h-2.3l10.1 21.2 9.6-21.2h-2.1zm10.6-.4l-9.8 21.2h2.3l2.9-6.4h9.6l3 6.4h2.3l-10.3-21.2zm-3.7 12.9l3.2-7c.2-.6.5-1.5.6-1.5 0 0 .3 1 .6 1.5l3.3 7h-7.7zm18.8 6.4V69.6h-2.1v20.8h11.9v-1.9h-9.8zm16.2 0V69.6h-2.1v20.8h11.9v-1.9h-9.8zm15.8 0v-7.9h9v-1.9h-9v-7.1h9.5v-1.9h-11.6v20.8h11.9v-1.9h-9.8zm28.1-18.9l-5.7 8c-.5.7-.9 1.5-.9 1.5s-.3-.8-.8-1.5l-5.8-8h-2.5l8 11.1v9.7h2.1v-9.7l8-11.1h-2.4z" fill="#483729"/></svg>